<svg width="171" height="40" viewBox="0 0 171 40" fill="none" xmlns="http://www.w3.org/2000/svg">
<path d="M10.2132 11.6996C10.4662 11.6996 10.7192 11.747 10.9247 11.7944C11.0037 11.8102 11.067 11.826 11.1302 11.826C11.652 11.0672 12.2528 10.3557 12.9326 9.69166C14.1816 8.45846 15.6045 7.46241 17.1539 6.73514C15.5413 8.0632 14.1658 9.88138 13.1697 12.0316C12.98 12.079 12.8061 12.1264 12.6164 12.1739C12.6954 12.3162 12.7429 12.4426 12.7429 12.5691C12.9642 12.7114 13.0749 12.8853 13.1381 13.0592C13.1856 13.0751 13.233 13.0751 13.2804 13.0909C13.4385 13.1225 13.5808 13.1699 13.7389 13.2015C13.7864 13.1067 13.818 12.996 13.8654 12.9011C15.1777 12.6166 16.5057 12.3794 17.8496 12.2055C17.6757 12.9011 17.5334 13.6442 17.4069 14.4031C17.565 14.4664 17.7389 14.577 17.8812 14.7826C18.0867 14.83 18.229 14.9249 18.3239 15.0355C18.482 13.9921 18.6717 12.996 18.9089 12.079C20.3002 11.9367 21.7073 11.8419 23.1144 11.8102V17.1857C23.2725 17.2806 23.399 17.4071 23.4781 17.5019C23.5413 17.4861 23.6045 17.4861 23.6678 17.4861C23.8417 17.4861 23.984 17.5177 24.1105 17.5652V11.8102C25.5176 11.8102 26.9089 11.8893 28.3002 12.0158C28.8061 13.9921 29.1381 16.2371 29.2488 18.6087C29.3279 18.7351 29.3753 18.8616 29.4069 18.9723C29.7389 19.083 29.9286 19.3043 30.0709 19.4782C30.1184 19.3992 30.1816 19.3201 30.2607 19.2411C30.1816 16.6956 29.8654 14.2766 29.3437 12.1264C30.6717 12.2845 31.984 12.4901 33.2962 12.7589C34.15 14.7035 34.6717 16.8853 34.814 19.1778C35.0986 19.2569 35.3041 19.4308 35.4306 19.5573C35.5729 19.5098 35.6994 19.4782 35.8259 19.4466C35.7152 17.1857 35.2567 15.0039 34.482 13.0276C35.399 13.2332 36.3002 13.4861 37.2014 13.7391C37.9445 15.2253 38.4188 16.8221 38.6401 18.498C38.7033 18.498 38.7508 18.4822 38.814 18.4664C38.9563 18.4506 39.1302 18.4189 39.3041 18.4189C39.3516 18.4189 39.399 18.4189 39.4306 18.4189H39.5255L39.6045 18.4506C39.6203 18.4506 39.6362 18.4664 39.6362 18.4664C39.1935 14.8774 37.5808 11.5573 34.9563 8.96439C31.9049 5.94463 27.8733 4.28455 23.5729 4.28455C19.2883 4.28455 15.2409 5.94463 12.1895 8.96439C11.3358 9.80233 10.6085 10.7193 9.97607 11.6996C10.0709 11.6996 10.1342 11.6996 10.2132 11.6996ZM34.2923 9.69166C35.1618 10.5454 35.9049 11.494 36.5373 12.5059C35.6994 12.2687 34.8614 12.0632 34.0077 11.8893C33.5334 10.8932 32.98 9.96044 32.3318 9.10668C31.652 8.20549 30.9089 7.43079 30.1184 6.76676C31.6362 7.47822 33.0591 8.47427 34.2923 9.69166ZM31.5255 9.69166C31.984 10.2925 32.3792 10.9407 32.7587 11.6205C31.5413 11.3992 30.3239 11.2094 29.0907 11.083C28.901 10.4189 28.6954 9.80233 28.4583 9.21735C27.8891 7.77862 27.2251 6.62447 26.482 5.80233C28.3634 6.46636 30.1026 7.79443 31.5255 9.69166ZM24.1105 5.37546C25.3595 5.69166 26.5769 7.19364 27.5255 9.58099C27.6994 10.0237 27.8575 10.498 28.0156 10.9881C26.7192 10.8774 25.4227 10.8142 24.1105 10.8142V5.37546ZM23.1144 5.37546V10.8142C21.8022 10.83 20.5057 10.9091 19.1935 11.0355C20.1579 7.9051 21.5492 5.7549 23.1144 5.37546ZM18.1184 11.162C16.8694 11.3201 15.6362 11.5098 14.403 11.7628C15.9207 8.86953 18.15 6.71933 20.7587 5.80233C19.6994 6.9881 18.7824 8.83791 18.1184 11.162Z" fill="#204180"/>
<path d="M38.34 27.1937L38.3084 27.2411C38.2135 27.3992 37.9764 27.6522 37.5179 27.6522C37.3281 27.6522 37.1542 27.6047 36.9961 27.5731C36.9329 27.5573 36.838 27.5415 36.8064 27.5257L36.7273 27.5415L36.6009 27.5257C36.5218 27.5099 36.4586 27.4941 36.3953 27.4782C36.1582 27.5415 35.921 27.6047 35.6839 27.668V28.332L34.7669 27.8893C34.672 27.9209 34.5613 27.9367 34.4665 27.9684C34.4823 27.9051 34.5139 27.8577 34.5297 27.7944C34.2451 27.6838 33.9447 27.5889 33.6285 27.4941C33.6127 27.4941 33.5969 27.4782 33.5811 27.4782C33.4862 27.7312 33.3756 27.9842 33.2649 28.2371C31.9684 28.5059 30.6562 28.7114 29.3281 28.8695C29.4704 28.2846 29.5969 27.668 29.7076 27.0356C29.7076 27.0197 29.6918 27.0039 29.6918 26.9881C29.3439 27.2095 28.9803 27.4308 28.585 27.5099C28.4902 28.0158 28.3795 28.5059 28.253 28.9802C26.8617 29.1067 25.4704 29.1858 24.0633 29.1858V25.3755C23.9843 25.3755 23.9052 25.3913 23.8262 25.3913C23.6839 25.3913 23.5416 25.3755 23.4151 25.3439L23.1621 25.2806L23.0515 25.1383V29.1699C21.6443 29.1383 20.2372 29.0593 18.8459 28.9012C18.6088 28 18.419 27.0356 18.2767 26.0395C18.2451 26.0395 18.2135 26.0395 18.1661 26.0395C18.008 26.0395 17.8341 26.0079 17.676 25.9605C17.4862 25.9763 17.3598 25.9921 17.2491 25.9921C17.3914 26.9565 17.5653 27.8893 17.7866 28.7747C16.4428 28.6008 15.1147 28.3636 13.8024 28.079C13.3598 27.0514 13.0119 25.9763 12.7748 24.8379C12.4111 24.7431 11.9684 24.5692 11.6681 24.4269C11.8894 25.5968 12.2056 26.7193 12.6167 27.7944C11.7471 27.5889 10.8934 27.3518 10.0396 27.083L9.97635 27.2885C9.26489 25.8656 8.79058 24.3478 8.55343 22.7668C8.44276 22.751 8.22141 22.7035 8.01588 22.5454C7.87359 22.5296 7.66805 22.4822 7.49414 22.3557C7.90521 26.0079 9.53367 29.3755 12.1898 31.9842C15.2412 34.9881 19.257 36.6482 23.5416 36.6482C23.5574 36.6482 23.5574 36.6482 23.5732 36.6482C23.589 36.6482 23.589 36.6482 23.6048 36.6482C27.8894 36.6324 31.9052 34.9881 34.9566 31.9684C36.4111 30.5771 37.5337 28.9486 38.34 27.1937ZM12.9329 31.2727C12.0001 30.3557 11.2096 29.3439 10.5613 28.2529C11.4151 28.5059 12.2847 28.7273 13.1542 28.9328C13.6443 29.9763 14.2293 30.9723 14.8934 31.8735C15.5732 32.7747 16.3163 33.5494 17.1068 34.2134C15.5732 33.4861 14.1661 32.5059 12.9329 31.2727ZM15.6839 31.2727C15.1937 30.6245 14.7669 29.9288 14.3874 29.2016C15.6206 29.4545 16.8538 29.6601 18.1028 29.8024C18.2926 30.4822 18.5139 31.1304 18.7511 31.747C19.3202 33.1858 19.9843 34.3399 20.7273 35.162C18.8617 34.498 17.1226 33.1699 15.6839 31.2727ZM23.1147 35.5889C21.8657 35.2727 20.6483 33.7707 19.6997 31.3834C19.51 30.9249 19.3518 30.4348 19.1937 29.9288C20.4902 30.0553 21.8024 30.1344 23.1147 30.1502V35.5889ZM24.1107 35.6047V30.166C25.4072 30.166 26.7194 30.1027 28.0159 29.9921C27.0515 33.0909 25.6601 35.2095 24.1107 35.6047ZM29.091 29.8814C30.3242 29.7549 31.5416 29.5652 32.759 29.3439C31.2412 32.1739 29.0277 34.2767 26.4665 35.1778C27.5258 33.9921 28.4269 32.1581 29.091 29.8814ZM34.2926 31.2727C33.0435 32.5059 31.6206 33.502 30.0712 34.2292C31.6522 32.9328 32.9961 31.162 33.9922 29.0909C34.8459 28.9012 35.6997 28.6956 36.5376 28.4743C35.9052 29.4703 35.1621 30.419 34.2926 31.2727Z" fill="#204180"/>
<path d="M61.423 9.70751L61.4071 21.0119C61.4071 22.5929 62.3083 23.1779 62.3083 23.1779H57.5494C57.5494 23.1779 58.4506 22.5929 58.4506 21.0119V16.1897H52.5218V21.0119C52.5218 22.5929 53.423 23.1779 53.423 23.1779H48.6641C48.6641 23.1779 49.5652 22.5929 49.5652 21.0119L49.5811 9.70751C49.5811 8.12648 48.6799 7.5415 48.6799 7.5415H53.4388C53.4388 7.5415 52.5376 8.12648 52.5376 9.70751V14.5296H58.4664V9.70751C58.4664 8.12648 57.5652 7.5415 57.5652 7.5415H62.3241C62.3241 7.5415 61.423 8.14229 61.423 9.70751Z" fill="#243C7C"/>
<path d="M67.2729 9.72338L67.2571 21.0277C67.2571 22.6088 68.1583 23.1937 68.1583 23.1937H63.3994C63.3994 23.1937 64.3006 22.6088 64.3006 21.0277L64.3164 9.72338C64.3164 8.14235 63.4152 7.55737 63.4152 7.55737H68.1741C68.1899 7.55737 67.2887 8.14235 67.2729 9.72338Z" fill="#243C7C"/>
<path d="M84.3635 21.0435L83.5888 12.0949L78.988 23.2095C77.9761 23.2095 77.0749 22.6088 76.6797 21.6918L72.6955 11.9368L71.8892 21.0277C71.7627 22.6088 72.5848 23.1937 72.5848 23.1937H68.8062C68.8062 23.1937 69.7706 22.6088 69.9129 21.0277L70.9089 9.72338C71.0354 8.14235 70.1816 7.55737 70.1816 7.55737H73.8971L78.6718 19.2728L82.6876 9.58109C82.9722 8.94868 83.067 8.23721 83.0038 7.55737H87.1145C87.1145 7.55737 86.2607 8.14235 86.403 9.72338L87.3832 21.0277C87.5097 22.6088 88.4583 23.1937 88.4583 23.1937H83.6678C83.652 23.2095 84.4899 22.6246 84.3635 21.0435Z" fill="#243C7C"/>
<path d="M98.7192 21.0593L98.0394 18.9091H92.822L92.158 21.0593C91.6362 22.6404 92.3319 23.2254 92.3319 23.2254H88.5532C88.5532 23.2254 89.6441 22.6404 90.1817 21.0593L93.8655 9.755C94.3714 8.17397 93.6758 7.58899 93.6758 7.58899H95.5414C96.6007 7.58899 97.5335 8.26883 97.8655 9.28069L101.692 21.0752C102.197 22.6562 103.288 23.257 103.288 23.257H98.5295C98.5137 23.2254 99.2093 22.6404 98.7192 21.0593ZM97.5967 17.4388L95.4307 10.4506L93.2805 17.423L97.5967 17.4388Z" fill="#243C7C"/>
<path d="M110.214 21.581C112.633 21.581 113.897 20.5534 113.897 20.5534L113.439 23.2569L103.605 23.2411C103.605 23.2411 104.506 22.6561 104.506 21.0751L104.522 9.77074C104.522 8.18972 103.621 7.60474 103.621 7.60474H108.38C108.38 7.60474 107.478 8.18972 107.478 9.77074L107.463 21.581C107.463 21.5652 109.55 21.581 110.214 21.581Z" fill="#243C7C"/>
<path d="M124.379 21.0909L123.7 18.9407H118.482L117.818 21.0909C117.296 22.6719 117.992 23.2569 117.992 23.2569H114.213C114.213 23.2569 115.304 22.6719 115.842 21.0909L119.526 9.77074C120.032 8.18972 119.336 7.60474 119.336 7.60474H121.202C122.261 7.60474 123.194 8.28458 123.526 9.29644L127.352 21.0909C127.858 22.6719 128.949 23.2727 128.949 23.2727H124.19C124.19 23.2569 124.885 22.6719 124.379 21.0909ZM123.273 17.4703L121.107 10.4822L118.941 17.4545L123.273 17.4703Z" fill="#243C7C"/>
<path d="M136.127 7.62061H140.079C140.079 7.62061 138.846 8.20559 138.056 9.78662L134.672 16.4744V21.0752C134.672 22.6562 135.573 23.2412 135.573 23.2412H130.814C130.814 23.2412 131.716 22.6562 131.716 21.0752V16.4744L128.348 9.77081C127.558 8.18978 126.356 7.58899 126.356 7.58899H131.273C131.273 7.58899 130.672 8.17397 131.494 9.755L133.708 14.3874L135.921 9.80243C136.712 8.2214 136.127 7.62061 136.127 7.62061Z" fill="#243C7C"/>
<path d="M147.589 21.1067L146.909 18.9565H141.692L141.028 21.1067C140.506 22.6877 141.202 23.2727 141.202 23.2727H137.423C137.423 23.2727 138.514 22.6877 139.051 21.1067L142.719 9.80236C143.225 8.22133 142.53 7.63635 142.53 7.63635H144.395C145.454 7.63635 146.387 8.31619 146.719 9.32805L150.545 21.1225C151.051 22.7035 152.142 23.3043 152.142 23.3043H147.383C147.383 23.2885 148.079 22.6877 147.589 21.1067ZM146.466 17.4862L144.3 10.498L142.134 17.4703L146.466 17.4862Z" fill="#243C7C"/>
<path d="M166.688 7.65216C166.688 7.65216 165.787 8.23714 165.787 9.81817L165.771 23.5099H165.265C163.399 23.5099 161.692 22.498 160.806 20.8537L155.352 11.2727L155.336 21.1067C155.336 22.6877 156.237 23.2727 156.237 23.2727H152.458C152.458 23.2727 153.36 22.6877 153.36 21.1067L153.375 9.80236C153.375 8.22133 152.474 7.63635 152.474 7.63635H156.901L163.779 19.8735L163.794 9.81817C163.794 8.23714 162.893 7.65216 162.893 7.65216H166.688Z" fill="#243C7C"/>
<path d="M53.9922 31.5257C53.9922 32.585 53.1385 33.3281 51.5891 33.3281H48.8223C48.8223 33.3281 49.2175 33.0751 49.2175 32.3795V27.4467C49.2175 26.751 48.8223 26.498 48.8223 26.498H51.431C52.68 26.498 53.4547 27.1779 53.4547 28.2056C53.4547 28.8696 53.0594 29.4229 52.5061 29.7233C53.4072 29.9131 53.9922 30.6087 53.9922 31.5257ZM50.514 29.4704H51.0515C51.8262 29.4704 52.3163 28.9486 52.3163 28.3162Cnan nan 51.9211 27.2095 51.1148 27.2095H50.514V29.4704ZM51.2254 30.087H50.514V32.6008H51.2096C52.0792 32.6008 52.6958 32.1581 52.6958 31.336C52.6958 30.6561 52.1582 30.087 51.2254 30.087Z" fill="#243C7C"/>
<path d="M60.7117 27.4624V32.3952C60.7117 33.0909 61.107 33.3438 61.107 33.3438H59.4153V32.5691C59.1307 32.8695 58.435 33.4229 57.5338 33.4229C56.2058 33.4229 55.5417 32.5849 55.5417 31.2411V27.4466C55.5417 26.751 55.1465 26.498 55.1465 26.498H57.2176C57.2176 26.498 56.8224 26.751 56.8224 27.4466V31.162C56.8224 32.1264 57.186 32.5849 57.8975 32.5849C59.0674 32.5849 59.4153 31.4308 59.4153 31.4308V27.4308C59.4153 26.7351 59.02 26.4822 59.02 26.4822H61.107C61.107 26.5138 60.7117 26.7668 60.7117 27.4624Z" fill="#243C7C"/>
<path d="M64.0318 27.4624V32.3952C64.0318 33.0909 64.4271 33.3438 64.4271 33.3438H62.356C62.356 33.3438 62.7512 33.0909 62.7512 32.3952V27.4624C62.7512 26.7668 62.356 26.5138 62.356 26.5138H64.4271C64.4271 26.5138 64.0318 26.7668 64.0318 27.4624Z" fill="#243C7C"/>
<path d="M68.5537 32.6008C69.613 32.6008 70.1664 32.1581 70.1664 32.1581L69.9609 33.3281H65.6763C65.6763 33.3281 66.0715 33.0751 66.0715 32.3795V27.4467C66.0715 26.751 65.6763 26.498 65.6763 26.498H67.7474C67.7474 26.498 67.3522 26.751 67.3522 27.4467V32.6008C67.3522 32.6008 68.2692 32.6008 68.5537 32.6008Z" fill="#243C7C"/>
<path d="M72.6959 26.5139H73.3599H73.8816C75.7631 26.5139 77.0753 28.0316 77.0753 29.9131C77.0753 31.7945 75.7789 33.3281 73.8816 33.3281H72.6959H71.3994C71.3994 33.3281 71.7947 33.0751 71.7947 32.3795V27.4467C71.7947 26.751 71.3994 26.498 71.3994 26.498H72.6959V26.5139ZM75.6682 29.9131C75.6682 27.6206 74.5615 27.2253 73.6287 27.2253H73.0911V32.6008H73.6287C74.5773 32.6008 75.6682 32.2214 75.6682 29.9131Z" fill="#243C7C"/>
<path d="M81.3759 32.6008C82.4352 32.6008 82.9886 32.1581 82.9886 32.1581L82.783 33.3281H78.2139C78.2139 33.3281 78.6091 33.0751 78.6091 32.3795V27.4467C78.6091 26.751 78.2139 26.498 78.2139 26.498H82.6882V27.6364C82.6882 27.6364 82.2297 27.2253 81.2494 27.2253C80.6803 27.2253 79.9056 27.2253 79.9056 27.2253V29.3913H82.3087L82.1506 30.3874C82.1506 30.3874 81.8028 30.1186 80.9649 30.1186H79.9056V32.6008C79.9056 32.6008 81.0913 32.6008 81.3759 32.6008Z" fill="#243C7C"/>
<path d="M90.1503 33.328C90.1503 33.328 89.7709 33.4545 89.0436 33.4545C88.348 33.4545 88.016 33.1383 87.7472 32.6166L86.6405 30.5454L85.9132 30.6877V32.3794C85.9132 33.0751 86.3085 33.328 86.3085 33.328H84.2373C84.2373 33.328 84.6326 33.0751 84.6326 32.3794V27.4466C84.6326 26.751 84.2373 26.4822 84.2373 26.4822H87.4784C88.5219 26.4822 89.3756 27.3359 89.3756 28.3794C89.3756 29.5494 88.348 30.0395 87.9527 30.1818L89.2175 32.3636C89.6286 33.0751 90.1503 33.328 90.1503 33.328ZM85.929 27.2253V30.0553L86.9251 29.8498C87.6049 29.6917 88.0792 29.0909 88.0792 28.3794C88.0792 27.7312 87.5575 27.2095 86.9092 27.2095H85.929V27.2253Z" fill="#243C7C"/>
<path d="M95.9051 31.5732C95.9051 32.7431 94.8933 33.423 93.1858 33.423C92 33.423 91.1621 33.1226 91.1621 33.1226L91.083 31.7313C91.083 31.7313 91.9368 32.6799 93.2964 32.6799C94.0079 32.6799 94.6245 32.3637 94.6245 31.7471C94.6245 30.2767 91.083 30.1819 91.083 28.0949C91.083 27.0198 92.0632 26.4032 93.4545 26.4032C94.6245 26.4032 95.5257 26.7036 95.5257 26.7036V28.0317C95.5257 28.0317 94.7352 27.1305 93.5652 27.1305C92.8696 27.1305 92.3636 27.4625 92.3636 27.9526C92.3636 29.249 95.9051 29.2807 95.9051 31.5732Z" fill="#243C7C"/>
<path d="M107.969 33.328H105.739C105.739 33.328 105.218 33.0118 104.569 32.4585C104.19 32.8379 103.447 33.4229 102.309 33.4229C100.87 33.4229 100.016 32.585 100.016 31.4782C100.016 30.1344 101.439 29.4071 102.087 29.1225C101.977 28.8221 101.929 28.5217 101.929 28.2213C101.929 27.1462 102.672 26.3873 104.048 26.3873C105.154 26.3873 105.834 26.8933 105.834 26.8933V28.3636C105.834 28.3636 105.202 27.1146 104.143 27.1146C103.494 27.1146 103.21 27.5889 103.21 28.1739C103.21 30.7352 107.969 33.328 107.969 33.328ZM104.016 31.9525C103.4 31.3676 102.767 30.6245 102.403 29.7865C101.992 30.0079 101.313 30.4506 101.313 31.3201C101.313 32.1739 101.929 32.6956 102.735 32.6482C103.368 32.6008 103.779 32.2371 104.016 31.9525Z" fill="#243C7C"/>
<path d="M114.862 32.6008C115.921 32.6008 116.474 32.1581 116.474 32.1581L116.269 33.3281H111.7C111.7 33.3281 112.095 33.0751 112.095 32.3795V27.4467C112.095 26.751 111.7 26.498 111.7 26.498H116.174V27.6364C116.174 27.6364 115.716 27.2253 114.735 27.2253C114.166 27.2253 113.391 27.2253 113.391 27.2253V29.3913H115.795L115.636 30.3874C115.636 30.3874 115.289 30.1186 114.451 30.1186H113.391V32.6008C113.376 32.6008 114.577 32.6008 114.862 32.6008Z" fill="#243C7C"/>
<path d="M123.905 26.5138C123.905 26.5138 123.51 26.7668 123.51 27.4624V33.4387H123.289C122.482 33.4387 121.723 32.996 121.344 32.2845L118.957 28.1106V32.3952C118.957 33.0909 119.352 33.3438 119.352 33.3438H117.708C117.708 33.3438 118.103 33.0909 118.103 32.3952V27.4624C118.103 26.7668 117.708 26.5138 117.708 26.5138H119.636L122.64 31.8419V27.4624C122.64 26.7668 122.245 26.5138 122.245 26.5138H123.905V26.5138Z" fill="#243C7C"/>
<path d="M130.846 32.0316C130.846 32.917 131.02 33.1857 131.02 33.1857C131.02 33.1857 129.818 33.4229 128.601 33.4229C127.004 33.4229 125.154 32.4427 125.154 29.913C125.154 27.5099 126.846 26.4189 128.49 26.4189C129.708 26.4189 130.482 26.7193 130.482 26.7193V28.0474C130.482 28.0474 129.629 27.1462 128.538 27.1462C127.557 27.1462 126.498 27.8419 126.498 29.913C126.498 31.9209 127.7 32.6956 128.743 32.6956C129.075 32.6956 129.344 32.6482 129.55 32.585V30.6877C129.55 29.9921 129.154 29.7233 129.154 29.7233H130.846V32.0316Z" fill="#243C7C"/>
<path d="M133.945 27.4624V32.3952C133.945 33.0909 134.34 33.3438 134.34 33.3438H132.269C132.269 33.3438 132.664 33.0909 132.664 32.3952V27.4624C132.664 26.7668 132.269 26.5138 132.269 26.5138H134.34C134.34 26.5138 133.945 26.7668 133.945 27.4624Z" fill="#243C7C"/>
<path d="M141.771 26.5138C141.771 26.5138 141.376 26.7668 141.376 27.4624V33.4387H141.154C140.348 33.4387 139.589 32.996 139.21 32.2845L136.822 28.1106V32.3952C136.822 33.0909 137.218 33.3438 137.218 33.3438H135.573C135.573 33.3438 135.968 33.0909 135.968 32.3952V27.4624C135.968 26.7668 135.573 26.5138 135.573 26.5138H137.502L140.506 31.8419V27.4624C140.506 26.7668 140.111 26.5138 140.111 26.5138H141.771V26.5138Z" fill="#243C7C"/>
<path d="M146.182 32.6008C147.241 32.6008 147.795 32.1581 147.795 32.1581L147.589 33.3281H143.02C143.02 33.3281 143.415 33.0751 143.415 32.3795V27.4467C143.415 26.751 143.02 26.498 143.02 26.498H147.494V27.6364C147.494 27.6364 147.036 27.2253 146.056 27.2253C145.486 27.2253 144.712 27.2253 144.712 27.2253V29.3913H147.115L146.957 30.3874C146.957 30.3874 146.609 30.1186 145.771 30.1186H144.712V32.6008C144.696 32.6008 145.897 32.6008 146.182 32.6008Z" fill="#243C7C"/>
<path d="M152.222 32.6008C153.281 32.6008 153.834 32.1581 153.834 32.1581L153.629 33.3281H149.06C149.06 33.3281 149.455 33.0751 149.455 32.3795V27.4467C149.455 26.751 149.06 26.498 149.06 26.498H153.518V27.6364C153.518 27.6364 153.06 27.2253 152.079 27.2253C151.51 27.2253 150.735 27.2253 150.735 27.2253V29.3913H153.139L152.981 30.3874C152.981 30.3874 152.633 30.1186 151.795 30.1186H150.735V32.6008C150.735 32.6008 151.921 32.6008 152.222 32.6008Z" fill="#243C7C"/>
<path d="M160.98 33.328C160.98 33.328 160.601 33.4545 159.874 33.4545C159.178 33.4545 158.846 33.1383 158.577 32.6166L157.471 30.5454L156.743 30.6877V32.3794C156.743 33.0751 157.139 33.328 157.139 33.328H155.067C155.067 33.328 155.463 33.0751 155.463 32.3794V27.4466C155.463 26.751 155.067 26.4822 155.067 26.4822H158.308C159.352 26.4822 160.206 27.3359 160.206 28.3794C160.206 29.5494 159.178 30.0395 158.783 30.1818L160.048 32.3636C160.459 33.0751 160.98 33.328 160.98 33.328ZM156.759 27.2253V30.0553L157.755 29.8498C158.435 29.6917 158.909 29.0909 158.909 28.3794C158.909 27.7312 158.388 27.2095 157.739 27.2095H156.759V27.2253Z" fill="#243C7C"/>
<path d="M166.735 31.5732C166.735 32.7431 165.723 33.423 164.016 33.423C162.83 33.423 161.992 33.1226 161.992 33.1226L161.913 31.7313C161.913 31.7313 162.767 32.6799 164.127 32.6799C164.838 32.6799 165.455 32.3637 165.455 31.7471C165.455 30.2767 161.913 30.1819 161.913 28.0949C161.913 27.0198 162.893 26.4032 164.285 26.4032C165.455 26.4032 166.356 26.7036 166.356 26.7036V28.0317C166.356 28.0317 165.565 27.1305 164.395 27.1305C163.7 27.1305 163.194 27.4625 163.194 27.9526C163.194 29.249 166.735 29.2807 166.735 31.5732Z" fill="#243C7C"/>
<path d="M40.5376 23.5256C39.336 22.6086 39.8103 22.498 39.5889 21.2015C39.2253 20.5375 40.3478 19.3992 39.415 19.083C38.9882 19.0513 38.5138 19.3043 38.1186 19.0355C38.0553 19.1462 37.9921 19.2569 37.9447 19.3834C37.8814 19.826 37.3755 19.9051 37.1067 19.7154C36.6324 19.9841 36.1265 20.0158 35.6206 20.1897C35.1463 20.5217 34.9565 19.6679 34.4822 19.8102C34.2134 19.826 34.0237 19.5415 33.7233 19.6363C33.581 19.6679 33.4229 19.6996 33.3597 19.4624C33.3123 19.2885 33.1225 19.2727 32.9961 19.4308C32.838 19.6837 32.7589 19.494 32.5692 19.415C32.4585 19.7628 32.5059 20.4268 32.0316 20.411C31.4467 20.332 31.0514 20.1422 30.9407 19.5098C30.4664 19.8577 30.5138 20.2371 30.7984 20.6166C30.5771 20.8537 30.1028 20.8853 30.0553 20.5691C30.1502 20.3952 30.0395 20.332 29.9131 20.2529C29.6285 20.0474 29.5178 19.6521 29.1384 19.5731C28.7905 19.5256 28.838 19.0988 28.6324 18.8774C28.4585 18.9723 28.4901 19.2727 28.3953 19.4782C28.1265 19.2411 27.6522 19.1304 27.4467 19.3517C27.2095 19.7154 26.5929 19.4308 26.2134 19.5098C26.166 19.2569 26.087 19.0671 26.2609 18.8142C26.5613 18.3715 25.9763 17.6284 25.6285 18.2608C25.502 18.5454 25.2965 18.6561 25.0435 18.6561C24.3636 18.8774 24.1423 18.0237 23.5415 18.166C23.0356 18.3399 23.004 17.6126 22.4822 17.7075C21.8814 17.8181 22.1028 17.2806 21.8182 16.9486C21.4546 16.2845 21.7708 15.9525 20.8221 15.826C20 15.5415 19.5415 16.9486 19.0988 16.7588C18.498 16.5375 18.3399 15.9209 17.8972 15.5731C17.8498 15.3201 17.5494 15.4782 17.4387 15.2727C17.0593 14.6086 16.664 15.3675 16.332 14.7984C16.2846 14.8932 16.2055 14.9407 16.1265 15.0039C15.7629 14.6086 15.7154 15.2252 14.9407 14.6086C14.9565 14.577 14.9882 14.498 15.0514 14.3557C14.8617 14.3715 14.7352 14.3715 14.5929 14.3715C14.5138 14.2134 14.1976 13.7707 13.9289 13.913C13.4704 13.7391 13.0119 13.6917 12.5059 13.5335C12.6957 12.9328 12.0316 13.1383 12.0791 12.7114C12.1265 12.5375 12.0474 12.4268 11.921 12.3478C11.2727 12.8221 10.2451 12.0158 9.64428 12.5533C9.58104 12.9169 9.18578 12.3636 9.07511 12.6482C9.32807 14.2134 8.9012 13.3596 8.74309 14.0395C8.85377 14.4189 8.52175 14.7984 8.12649 14.5138C7.90515 14.0079 7.8261 13.5494 7.13045 13.5494C6.65614 13.4703 6.30831 12.9011 5.80238 12.9328C6.08697 13.5494 6.70357 13.7391 7.08301 14.2608C6.64033 14.5454 6.56128 15.0671 6.11859 15.3201C5.91305 15.4466 5.89724 15.7944 5.78657 15.9841C5.75495 16.0474 5.64428 16.1264 5.59685 16.1264C5.20159 16.079 5.07511 16.6324 5.43875 16.7588C5.73914 16.9328 5.20159 17.6126 5.13835 17.8814C4.72728 18.2924 5.54942 18.5138 5.35969 19.0039C5.04349 19.0355 5.28064 19.2411 5.07511 19.3992C4.64823 19.6363 4.80633 20.0316 4.61661 20.3952C4.53756 20.5691 4.61661 20.8537 4.74309 20.8853C5.43875 21.1541 6.07116 21.5494 6.73519 21.8656C6.67195 21.0909 6.70357 21.1857 7.39922 21.5177C7.47827 21.7391 7.68381 21.6442 7.8261 21.7549C7.95258 21.913 8.26879 21.8656 8.37946 21.9288C8.52175 22.1818 8.85377 22.0395 9.02768 22.2608C9.12254 22.3873 9.43875 22.3241 9.66009 22.3557C9.92886 22.3399 9.96049 22.7035 10.166 22.8458C10.2925 22.9881 10.5138 23.0513 10.419 23.3834C10.7194 23.3201 10.7668 22.8932 10.9882 23.1936C11.004 23.2727 11.1937 23.415 11.4783 23.5731C12.0316 23.2885 12.585 23.0197 13.1384 22.7509C13.502 22.577 13.8972 22.4664 14.2609 22.3557C14.5138 22.2766 14.7668 22.2134 14.9882 22.1185C15.1463 22.0553 15.3202 21.992 15.4783 21.9288C16.2055 21.6284 16.9644 21.328 17.7866 21.1541L17.9131 21.1225C17.9605 21.1067 18.0237 21.1067 18.0712 21.0909C18.087 21.0751 18.1028 21.0751 18.1028 21.0751L18.1502 21.0434H18.166H18.1818C18.2293 21.0118 18.2609 20.996 18.3083 20.9802H18.3241H18.3399L18.4664 20.9169H18.4822L18.5297 20.8853L18.751 20.7588C18.7826 20.743 18.83 20.7114 18.8617 20.6956C18.8775 20.6798 18.9091 20.664 18.9249 20.664L18.9407 20.6482C18.9407 20.6482 18.9565 20.6324 18.9723 20.5849L18.9882 20.5691C19.0356 20.4743 19.0988 20.3478 19.2095 20.2055C19.3202 20.0474 19.4941 19.9051 19.6838 19.826C19.7787 19.7786 19.8419 19.7628 19.8893 19.747C19.9051 19.747 19.921 19.7312 19.921 19.7312C19.9684 19.6521 20.0316 19.5731 20.0949 19.5098C20.2055 19.3834 20.3162 19.2885 20.4111 19.2094L20.6324 19.0355H20.6482C20.664 19.0197 20.6957 18.9881 20.7273 18.9723L20.7431 18.9565C20.7905 18.909 20.9012 18.83 21.0909 18.7668C21.1858 18.7351 21.2965 18.7193 21.4229 18.7193C21.5178 18.7193 21.7233 18.7351 21.8972 18.83C22.0237 18.8932 22.1028 18.9565 22.1344 18.9881L22.1818 19.0197L22.2134 19.0513L22.2293 19.0671C22.3241 19.1304 22.4032 19.1778 22.498 19.2094C22.5138 19.2252 22.5455 19.2252 22.5613 19.2411L22.5929 19.2569H22.6087C22.6719 19.2727 22.7668 19.3043 22.8617 19.3675C23.0356 19.4782 23.1463 19.6205 23.1937 19.7154C23.2253 19.7786 23.2411 19.826 23.2727 19.8735L23.3044 19.9367L23.3676 20.0632C23.5099 20.3952 23.6838 20.7114 23.8261 20.9486C23.9842 21.2332 24.1897 21.5177 24.3953 21.7865C24.4901 21.913 24.585 22.0395 24.7115 22.1818C24.7589 22.2292 24.8063 22.2766 24.838 22.3241C24.9644 22.3715 25.1067 22.4505 25.2174 22.5454C25.2648 22.577 25.3281 22.6086 25.3755 22.6403C25.4387 22.6719 25.502 22.7035 25.581 22.7351H25.5968H25.6127C25.7708 22.8142 25.8814 22.909 25.9605 22.9881L25.9763 23.0039C26.0079 23.0355 26.0395 23.0513 26.0553 23.0513H26.0712H26.087L26.166 23.0988C26.3241 22.9881 26.4822 22.8616 26.6561 22.7193L26.7352 22.6561L27.1937 22.2766L27.3044 22.1818L27.3202 22.166L27.336 22.1501C27.3992 22.1027 27.5731 21.9762 27.8261 21.9288C27.8893 21.913 27.9526 21.913 28 21.913C28.253 21.913 28.5059 22.0079 28.6957 22.166C28.838 22.2924 28.917 22.4031 28.9644 22.4664C29.0277 22.5612 29.0751 22.6403 29.1225 22.7351C29.249 22.9407 29.3597 23.1304 29.4862 23.2569C29.5336 23.3043 29.5494 23.3201 29.5652 23.3201H29.581L29.5968 23.3359C29.6127 23.3517 29.6443 23.3517 29.6601 23.3675C29.7075 23.3992 29.755 23.415 29.8024 23.4466C30.0237 23.5731 30.1976 23.7628 30.3083 23.9525C30.419 24.1422 30.4506 24.332 30.4822 24.4426C30.4822 24.4743 30.498 24.5217 30.498 24.5533V24.5691C30.5138 24.6007 30.5297 24.6166 30.5613 24.6482C30.6087 24.7114 30.6878 24.7905 30.751 24.8695L30.83 24.9486C30.8775 24.996 30.9249 25.0592 30.9723 25.1067C31.1304 25.2964 31.6838 26.166 31.9368 26.6245C31.9368 26.6245 31.9368 26.6403 31.9526 26.6403C32.2214 26.6403 32.5218 26.7035 32.7905 26.6245C33.0277 26.577 33.2648 26.4189 33.502 26.6561C34.0395 26.83 34.6087 26.9723 35.1304 27.2252C35.1304 27.1936 35.1304 27.162 35.1304 27.1462C35.6996 27.0197 36 26.577 36.3795 26.166C36.5534 26.3557 36.4901 26.7984 36.7747 26.83C37.1067 26.7509 37.6601 27.1304 37.8498 26.83C37.9447 26.5612 38.3716 26.3557 38.6245 26.498C39.004 26.7826 39.0514 26.166 39.3676 26.2924C39.5731 26.4347 39.5573 26.1185 39.668 26.0395C39.8577 26.1343 39.921 25.9762 39.9842 25.8972C40.2214 26.0395 40.4427 26.166 40.6482 26.2924C40.7589 26.0079 41.0277 25.9604 40.9328 25.66C40.8538 24.9486 41.1067 24.1897 40.5376 23.5256Z" fill="#BA2029"/>
<path d="M31.2571 26.9882C30.9725 26.4823 30.4508 25.6759 30.3559 25.5653C30.3085 25.5178 30.2769 25.4704 30.2295 25.423C30.1188 25.3123 30.0239 25.2016 29.9291 25.0752C29.8816 25.0119 29.8184 24.9329 29.7868 24.838C29.7551 24.7748 29.7551 24.6641 29.7235 24.5692C29.7077 24.4744 29.6761 24.3637 29.6287 24.2688C29.5654 24.1582 29.4706 24.0791 29.3757 24.0159C29.2808 23.9526 29.2018 23.921 29.1227 23.8736C29.0595 23.8261 28.9962 23.7787 28.933 23.7155C28.6959 23.4783 28.5219 23.1463 28.3164 22.8143C28.2848 22.7669 28.2532 22.7194 28.1741 22.6562C28.1109 22.6088 27.9844 22.5455 27.8737 22.5771C27.763 22.5929 27.684 22.6562 27.6524 22.6878L27.5417 22.7827L27.099 23.1463C26.7986 23.3835 26.514 23.6206 26.2136 23.7945C26.1978 23.8103 26.1662 23.8261 26.1346 23.8261L25.9607 23.7313L25.7235 23.6048C25.6445 23.5574 25.5654 23.5099 25.5022 23.4467C25.4389 23.3835 25.3599 23.3202 25.265 23.2728C25.186 23.2254 25.1069 23.1937 25.0279 23.1463C24.9488 23.0989 24.8698 23.0514 24.8065 23.004C24.7433 22.9566 24.6326 22.8933 24.5536 22.8617C24.4745 22.8301 24.4113 22.7827 24.348 22.7352C24.2848 22.672 24.2215 22.6088 24.1741 22.5297C24.0634 22.3874 23.937 22.2609 23.8263 22.1028C23.6049 21.8182 23.3994 21.5178 23.2097 21.2016C23.02 20.8854 22.8461 20.5692 22.7038 20.2214L22.6563 20.0949L22.6247 20.0317C22.6247 20.0159 22.6089 20.0001 22.5931 19.9526C22.5773 19.921 22.5457 19.8736 22.4824 19.842C22.435 19.8103 22.3876 19.8103 22.3401 19.7787C22.3085 19.7629 22.2769 19.7471 22.2453 19.7313C22.103 19.668 21.9607 19.589 21.85 19.5099C21.8184 19.4941 21.7868 19.4625 21.771 19.4467L21.7235 19.4151C21.7077 19.3993 21.6761 19.3676 21.597 19.336C21.5338 19.3044 21.4073 19.2886 21.3283 19.3202C21.2492 19.3518 21.2018 19.3835 21.1702 19.4151C21.1385 19.4467 21.1227 19.4625 21.1069 19.4783L21.0753 19.4941L20.854 19.668C20.7749 19.7313 20.6959 19.7945 20.6168 19.8894C20.5852 19.9368 20.5378 19.9842 20.5061 20.0317C20.4745 20.0791 20.4587 20.1107 20.4429 20.1265C20.4429 20.1265 20.4271 20.1423 20.4113 20.1582C20.3955 20.174 20.348 20.1898 20.3164 20.2214C20.2848 20.2372 20.2532 20.2688 20.2215 20.2846L20.1899 20.3005C20.1741 20.3005 20.1583 20.3005 20.1425 20.3163C20.1109 20.3321 20.0476 20.3321 19.9844 20.3795C19.9211 20.4111 19.8263 20.4744 19.7789 20.5376C19.6998 20.6325 19.6524 20.7273 19.6208 20.8064C19.5891 20.8854 19.5575 20.9329 19.5101 20.9961C19.4627 21.0435 19.4152 21.091 19.352 21.1384C19.3045 21.17 19.2097 21.2174 19.1306 21.2649L18.8935 21.4072L18.8302 21.4388C18.8144 21.4388 18.7986 21.4546 18.7828 21.4546L18.6563 21.5178C18.6405 21.5337 18.6089 21.5495 18.5773 21.5653L18.5457 21.5969C18.5298 21.5969 18.514 21.6285 18.4982 21.6285C18.4824 21.6443 18.4824 21.6601 18.4666 21.6601C18.3085 21.6918 18.1662 21.7234 18.0081 21.755C17.0753 21.9447 16.2057 22.34 15.3204 22.6878C14.7196 22.925 14.0713 23.0356 13.5022 23.3044C13.1069 23.4941 12.7117 23.6839 12.3164 23.8894C12.854 24.1107 13.3599 24.2688 13.3441 24.1107C13.3599 23.842 13.8342 23.6522 14.0081 23.8894C14.1346 24.0791 14.3401 24.0001 14.514 24.0791C15.2571 24.506 15.9211 24.8538 16.7117 24.3163C17.4231 25.1384 16.4271 25.3756 17.9132 25.2174C18.1978 25.3756 18.4666 25.3123 18.7354 25.2174C19.2413 24.9645 19.8105 26.3242 19.8737 25.1858C19.8105 25.0593 19.8737 24.9645 19.9844 24.9171C19.9211 24.506 19.9528 24.1107 19.8579 23.6997C19.6998 23.0514 19.7789 22.4665 20.348 23.257C20.5852 23.589 20.7591 23.9684 20.8698 24.3637C20.9172 24.5376 20.9804 24.6957 21.0279 24.8696C21.1069 24.8854 21.1702 24.9329 21.2492 24.9645C21.1544 24.5218 21.0279 24.0791 20.854 23.6522C20.68 23.2095 20.1583 22.1819 20.7275 21.8499C21.0121 21.6918 21.186 21.423 21.186 21.0752C21.186 21.0593 21.186 21.0435 21.186 21.0119C21.1702 20.7431 21.1227 20.6008 21.2176 20.3321C21.2334 20.2846 21.3441 20.0475 21.3599 19.921C21.3757 19.9052 21.3915 19.8894 21.4073 19.8736L21.4231 19.8578C21.4547 19.8894 21.4864 19.9052 21.518 19.9368C21.6919 20.0633 21.8974 20.1265 22.1188 20.174C22.1346 20.174 22.1662 20.174 22.1978 20.1898C22.2136 20.1898 22.2453 20.2214 22.2611 20.2372C22.3085 20.2688 22.3559 20.3005 22.3876 20.3479C22.4034 20.3479 22.4034 20.3637 22.4192 20.3795C22.6405 20.6641 22.8302 20.9803 23.0358 21.2965C23.2413 21.5969 23.4468 21.9131 23.6682 22.2135C23.7789 22.3558 23.9053 22.4981 24.016 22.6404C24.0793 22.7036 24.1425 22.7827 24.2057 22.8459C24.2848 22.925 24.3796 22.9724 24.4587 23.004C24.5536 23.0356 24.601 23.0673 24.6959 23.1305C24.7749 23.1779 24.854 23.2254 24.9488 23.257C25.0279 23.2886 25.1227 23.3202 25.2018 23.3518C25.2808 23.3835 25.3599 23.4309 25.4231 23.4783C25.5022 23.5257 25.5812 23.5732 25.6761 23.6048L25.9291 23.7155L26.103 23.7945C26.0555 23.8103 26.0081 23.842 25.9607 23.8578L25.8974 23.8894C25.8816 23.8894 25.8816 23.9052 25.8658 23.9052C25.8342 23.921 25.8026 23.921 25.7868 23.9368C25.5022 24.0633 25.2176 24.2214 24.9488 24.3795C24.8065 24.4586 24.6642 24.5218 24.5219 24.6008C24.7749 24.5692 25.0121 24.5692 25.2334 24.6641C25.771 24.9645 25.3125 26.0554 25.8342 25.9922C26.5615 25.6759 27.0358 26.5613 27.6524 26.419C27.6524 26.3874 27.6366 26.34 27.6208 26.3084C27.4785 25.9763 27.352 25.6285 27.2097 25.2965C27.1623 25.1858 27.1306 25.0752 27.1464 24.9645C27.1623 24.8064 27.2729 24.7273 27.3204 24.6167C27.352 24.5376 27.3678 24.4586 27.3045 24.3321C27.2729 24.2688 27.2255 24.2214 27.2097 24.1423C27.1781 24.0633 27.1939 23.9842 27.2255 23.8894C27.2571 23.7471 27.3204 23.6206 27.3994 23.4941C27.4152 23.4625 27.4468 23.4309 27.4627 23.3835L27.8421 23.0831L27.9528 23.004C27.9528 23.004 27.9686 23.0198 27.9844 23.0356C28.1899 23.336 28.3955 23.6997 28.7275 23.9684C28.8065 24.0317 28.9014 24.0949 28.9962 24.1423C29.0911 24.1898 29.186 24.2214 29.265 24.253C29.3441 24.2846 29.3915 24.3163 29.4389 24.3795C29.4864 24.4427 29.518 24.5218 29.5496 24.6008C29.5812 24.6799 29.6128 24.7748 29.6761 24.8854C29.7393 24.9803 29.8026 25.0435 29.8658 25.1068C30.0239 25.2649 30.1346 25.4388 30.2769 25.6127C30.3717 25.7234 30.8935 26.5297 31.2413 27.0514C31.2413 27.0356 31.2571 27.0198 31.2571 27.004C31.2413 27.0356 31.2413 27.0198 31.2571 26.9882C31.2571 27.004 31.2571 26.9882 31.2571 26.9882Z" fill="#243C7C"/>
</svg>
